<svg width="150" height="150" viewBox="0 0 150 150" xmlns="http://www.w3.org/2000/svg">
  <!-- Calendar/Organization icon -->
  <rect x="20" y="30" width="110" height="90" rx="5" fill="#6a11cb" stroke="#2575fc" stroke-width="2"/>
  <rect x="25" y="35" width="100" height="80" fill="white"/>
  
  <!-- Calendar grid -->
  <line x1="35" y1="50" x2="115" y2="50" stroke="#6a11cb" stroke-width="1"/>
  <line x1="35" y1="65" x2="115" y2="65" stroke="#6a11cb" stroke-width="1"/>
  <line x1="35" y1="80" x2="115" y2="80" stroke="#6a11cb" stroke-width="1"/>
  <line x1="35" y1="95" x2="115" y2="95" stroke="#6a11cb" stroke-width="1"/>
  
  <line x1="50" y1="35" x2="50" y2="115" stroke="#6a11cb" stroke-width="1"/>
  <line x1="75" y1="35" x2="75" y2="115" stroke="#6a11cb" stroke-width="1"/>
  <line x1="100" y1="35" x2="100" y2="115" stroke="#6a11cb" stroke-width="1"/>
  
  <!-- Calendar holes -->
  <circle cx="40" cy="25" r="3" fill="#2575fc"/>
  <circle cx="75" cy="25" r="3" fill="#2575fc"/>
  <circle cx="110" cy="25" r="3" fill="#2575fc"/>
  
  <!-- Check marks -->
  <path d="M35 55 L40 60 L50 50" stroke="#2575fc" stroke-width="2" fill="none"/>
  <path d="M60 70 L65 75 L75 65" stroke="#2575fc" stroke-width="2" fill="none"/>
</svg>
